<svg xmlns="http://www.w3.org/2000/svg" width="760" height="420" viewBox="0 0 760 420">
<rect width="100%" height="100%" fill="white"/>
<text x="54" y="30" font-family="Arial" font-size="20" fill="#111827">Accuracy and ROC by Epoch</text>
<line x1="54" y1="366" x2="706" y2="366" stroke="#6b7280"/>
<line x1="54" y1="54" x2="54" y2="366" stroke="#6b7280"/>
<polyline fill="none" stroke="#2563eb" stroke-width="2.5" points="54.00,366.00 66.07,315.62 78.15,298.32 90.22,286.61 102.30,280.60 114.37,273.12 126.44,268.87 138.52,264.78 150.59,261.24 162.67,256.76 174.74,251.40 186.81,249.83 198.89,243.40 210.96,240.31 223.04,238.33 235.11,236.06 247.19,233.45 259.26,232.25 271.33,229.55 283.41,224.70 295.48,224.73 307.56,222.29 319.63,222.89 331.70,216.86 343.78,216.87 355.85,215.86 367.93,211.03 380.00,202.10 392.07,201.14 404.15,194.94 416.22,194.76 428.30,189.80 440.37,183.01 452.44,179.04 464.52,173.78 476.59,172.26 488.67,171.83 500.74,169.62 512.81,165.96 524.89,165.54 536.96,162.46 549.04,162.29 561.11,161.08 573.19,158.90 585.26,158.23 597.33,155.77 609.41,154.26 621.48,153.83 633.56,153.76 645.63,149.47 657.70,151.47 669.78,149.20 681.85,149.89 693.93,149.39 706.00,147.65"/>
<text x="54" y="406" font-family="Arial" font-size="13" fill="#2563eb">train_acc</text>
<polyline fill="none" stroke="#dc2626" stroke-width="2.5" points="54.00,337.19 66.07,315.04 78.15,286.31 90.22,280.68 102.30,279.17 114.37,269.04 126.44,271.54 138.52,260.04 150.59,254.79 162.67,255.34 174.74,256.33 186.81,242.33 198.89,243.17 210.96,237.14 223.04,240.91 235.11,233.07 247.19,236.35 259.26,229.23 271.33,234.86 283.41,221.38 295.48,224.51 307.56,222.21 319.63,216.60 331.70,227.30 343.78,214.58 355.85,216.22 367.93,196.71 380.00,196.71 392.07,188.96 404.15,188.46 416.22,186.72 428.30,179.60 440.37,170.60 452.44,169.75 464.52,162.33 476.59,162.01 488.67,159.08 500.74,157.47 512.81,162.59 524.89,153.35 536.96,149.94 549.04,152.67 561.11,150.69 573.19,147.38 585.26,145.97 597.33,147.04 609.41,154.40 621.48,144.13 633.56,141.97 645.63,141.41 657.70,140.68 669.78,137.66 681.85,141.11 693.93,141.59 706.00,132.89"/>
<text x="204" y="406" font-family="Arial" font-size="13" fill="#dc2626">val_acc</text>
<polyline fill="none" stroke="#059669" stroke-width="2.5" points="54.00,277.92 66.07,222.30 78.15,202.64 90.22,190.33 102.30,183.25 114.37,177.08 126.44,171.54 138.52,168.42 150.59,164.81 162.67,161.08 174.74,157.15 186.81,154.54 198.89,148.64 210.96,145.97 223.04,143.84 235.11,141.41 247.19,139.37 259.26,137.69 271.33,135.22 283.41,131.86 295.48,130.79 307.56,129.57 319.63,129.70 331.70,125.23 343.78,124.62 355.85,123.04 367.93,120.00 380.00,110.68 392.07,109.18 404.15,104.61 416.22,104.14 428.30,98.88 440.37,92.53 452.44,89.74 464.52,85.88 476.59,84.89 488.67,83.60 500.74,82.11 512.81,79.37 524.89,79.27 536.96,76.98 549.04,76.29 561.11,75.29 573.19,73.67 585.26,73.22 597.33,71.61 609.41,70.49 621.48,70.84 633.56,70.07 645.63,67.30 657.70,68.81 669.78,67.05 681.85,67.17 693.93,66.84 706.00,65.95"/>
<text x="354" y="406" font-family="Arial" font-size="13" fill="#059669">train_roc</text>
<polyline fill="none" stroke="#7c3aed" stroke-width="2.5" points="54.00,241.74 66.07,216.16 78.15,190.47 90.22,182.82 102.30,182.96 114.37,170.89 126.44,173.33 138.52,163.70 150.59,159.29 162.67,160.37 174.74,158.77 186.81,147.72 198.89,147.95 210.96,143.18 223.04,139.48 235.11,137.17 247.19,136.60 259.26,134.48 271.33,138.67 283.41,126.65 295.48,131.05 307.56,128.12 319.63,124.68 331.70,130.81 343.78,122.86 355.85,123.17 367.93,108.08 380.00,103.60 392.07,98.43 404.15,100.41 416.22,97.44 428.30,87.45 440.37,81.92 452.44,81.86 464.52,75.03 476.59,75.64 488.67,74.04 500.74,72.41 512.81,73.74 524.89,70.10 536.96,67.24 549.04,68.96 561.11,68.77 573.19,64.07 585.26,62.80 597.33,64.23 609.41,65.32 621.48,61.43 633.56,61.17 645.63,58.31 657.70,60.23 669.78,58.99 681.85,58.06 693.93,58.93 706.00,54.00"/>
<text x="504" y="406" font-family="Arial" font-size="13" fill="#7c3aed">val_roc</text>
<text x="54" y="400" font-family="Arial" font-size="12" fill="#374151">epoch</text>
<text x="54" y="44" font-family="Arial" font-size="12" fill="#374151">0.9561</text>
<text x="54" y="360" font-family="Arial" font-size="12" fill="#374151">0.6997</text>
</svg>