<svg xmlns="http://www.w3.org/2000/svg" width="760" height="420" viewBox="0 0 760 420">
<rect width="100%" height="100%" fill="white"/>
<text x="54" y="30" font-family="Arial" font-size="20" fill="#111827">Loss by Epoch</text>
<line x1="54" y1="366" x2="706" y2="366" stroke="#6b7280"/>
<line x1="54" y1="54" x2="54" y2="366" stroke="#6b7280"/>
<polyline fill="none" stroke="#2563eb" stroke-width="2.5" points="54.00,54.00 66.07,104.53 78.15,125.22 90.22,138.90 102.30,146.77 114.37,154.07 126.44,160.59 138.52,164.44 150.59,169.28 162.67,173.75 174.74,178.98 186.81,182.57 198.89,190.58 210.96,194.48 223.04,197.78 235.11,201.17 247.19,204.26 259.26,206.67 271.33,210.21 283.41,215.61 295.48,217.05 307.56,219.03 319.63,219.17 331.70,225.60 343.78,227.41 355.85,229.51 367.93,234.38 380.00,249.56 392.07,252.89 404.15,261.03 416.22,262.41 428.30,271.22 440.37,282.70 452.44,288.33 464.52,296.18 476.59,298.29 488.67,301.00 500.74,304.20 512.81,310.41 524.89,310.84 536.96,315.41 549.04,317.09 561.11,319.31 573.19,322.90 585.26,324.43 597.33,327.77 609.41,330.42 621.48,330.25 633.56,331.62 645.63,338.00 657.70,334.88 669.78,338.66 681.85,338.71 693.93,339.67 706.00,341.70"/>
<text x="54" y="406" font-family="Arial" font-size="13" fill="#2563eb">train_loss</text>
<polyline fill="none" stroke="#dc2626" stroke-width="2.5" points="54.00,82.86 66.07,109.99 78.15,137.67 90.22,146.11 102.30,148.40 114.37,158.72 126.44,155.08 138.52,168.75 150.59,172.11 162.67,173.49 174.74,177.62 186.81,191.67 198.89,192.28 210.96,198.70 223.04,198.09 235.11,205.77 247.19,201.46 259.26,212.04 271.33,204.38 283.41,221.41 295.48,216.37 307.56,220.30 319.63,225.79 331.70,217.42 343.78,227.67 355.85,227.60 367.93,252.52 380.00,258.46 392.07,270.32 404.15,268.26 416.22,272.47 428.30,287.64 440.37,300.33 452.44,300.56 464.52,315.57 476.59,314.83 488.67,318.18 500.74,324.24 512.81,317.20 524.89,327.16 536.96,334.59 549.04,333.84 561.11,331.20 573.19,340.35 585.26,343.57 597.33,343.95 609.41,333.32 621.48,344.28 633.56,347.57 645.63,354.47 657.70,350.49 669.78,354.13 681.85,355.10 693.93,353.37 706.00,366.00"/>
<text x="204" y="406" font-family="Arial" font-size="13" fill="#dc2626">val_loss</text>
<text x="54" y="400" font-family="Arial" font-size="12" fill="#374151">epoch</text>
<text x="54" y="44" font-family="Arial" font-size="12" fill="#374151">0.5693</text>
<text x="54" y="360" font-family="Arial" font-size="12" fill="#374151">0.2754</text>
</svg>